<svg width="30" height="52" viewBox="0 0 30 52" fill="none" xmlns="http://www.w3.org/2000/svg">
<path d="M22.4806 11.1797V11.9102C22.4806 18.6141 22.4729 25.318 22.4943 32.0219C22.4959 32.5489 22.338 32.7965 21.8829 33.0835C19.7483 34.4246 18.1362 36.2684 16.9378 38.4615C15.3564 41.3579 14.6653 44.4592 15.1357 47.7276C15.3135 48.9609 15.8575 50.141 16.2743 51.4699C15.6889 51.6051 14.9564 51.8465 14.2071 51.9362C9.04131 52.5513 4.54369 48.6571 3.86943 43.9534C3.80966 43.5343 3.76063 43.1105 3.76063 42.6883C3.7545 32.3712 3.75603 22.0542 3.75603 11.7371V11.1812H22.4806V11.1797ZM18.7384 14.8825H7.65142C7.62537 14.9508 7.60238 14.9858 7.60238 15.0192C7.59625 18.2663 7.59165 21.5135 7.59472 24.7606C7.59472 24.8852 7.63303 25.0355 7.71118 25.1282C8.36245 25.8982 9.68952 26.1427 10.5431 25.5944C11.0947 25.2406 11.6096 24.8123 12.077 24.3536C12.9106 23.5319 13.8561 22.9275 14.9855 22.5933C16.2283 22.2258 17.4711 22.2865 18.7399 22.6085V14.8825H18.7384Z" fill="#FF6200"/>
<path d="M18.7368 45.9347C18.8334 42.1058 20.355 38.965 23.3693 36.5562C24.5508 35.613 26.0388 36.058 26.4694 37.4903C26.8739 38.8389 27.5482 40.0312 28.3542 41.1824C29.7564 43.1857 30.3647 45.4137 29.7763 47.818C29.1128 50.5305 26.4525 52.2741 23.685 51.943C20.8669 51.6058 18.7491 49.2319 18.7368 46.3979C18.7368 46.243 18.7368 46.0896 18.7368 45.9347Z" fill="#FF6200"/>
<path d="M9.41504 0.0322266H16.8319V7.3816H9.41504V0.0322266Z" fill="#FF6200"/>
<path d="M5.60241 0.00929948V7.41487C4.2401 7.41487 2.89924 7.45588 1.56451 7.39968C0.767655 7.36627 0.0366952 6.54917 0.0213711 5.75485C-0.00467992 4.38491 -0.00927716 3.01345 0.0244359 1.64351C0.0443572 0.821847 0.822822 0.0427126 1.65186 0.0199309C2.95287 -0.0165198 4.25542 0.0108183 5.60241 0.0108183V0.00929948Z" fill="#FF6200"/>
<path d="M20.6353 7.41839V0.0173696C21.9991 0.0173696 23.3384 -0.0236375 24.6732 0.0325574C25.47 0.0659705 26.1979 0.881556 26.2148 1.6774C26.2423 3.02759 26.2408 4.37931 26.2163 5.73102C26.201 6.55724 25.4639 7.37434 24.641 7.40624C23.3216 7.45636 22.0006 7.4199 20.6353 7.4199V7.41839Z" fill="#FF6200"/>
</svg>
