<svg width="20" height="20" viewBox="0 0 20 20" fill="none" xmlns="http://www.w3.org/2000/svg">
<path d="M19.9996 9.72656V10.2734C19.9883 10.2961 19.9722 10.318 19.9667 10.3422C19.7872 11.1477 19.2907 11.6391 18.4887 11.8113C18.2899 11.8539 18.0794 11.8422 17.8568 11.8562C17.8568 11.9437 17.8568 12.0203 17.8568 12.0973C17.8557 14.0348 17.8623 15.9727 17.8498 17.9102C17.8439 18.8242 17.2352 19.6172 16.3666 19.8973C16.2508 19.9344 16.1335 19.966 16.0169 20H12.3464C12.0193 19.8457 11.9109 19.5871 11.9141 19.2297C11.9266 17.7523 11.9195 16.2746 11.9191 14.7973C11.9191 14.1352 11.5306 13.7371 10.8718 13.7316C10.2928 13.7266 9.71377 13.727 9.13475 13.7316C8.47474 13.7371 8.08742 14.1328 8.08742 14.7961C8.08703 16.2734 8.08038 17.7512 8.09212 19.2285C8.09486 19.5844 7.98727 19.8445 7.66098 20H3.99046C3.96151 19.9875 3.93373 19.9695 3.90361 19.9633C2.90284 19.7676 2.16811 18.9406 2.15833 17.9273C2.13955 15.9812 2.15011 14.0348 2.14855 12.0883C2.14855 12.0125 2.14855 11.9363 2.14855 11.8371C2.00144 11.8371 1.87938 11.8418 1.75771 11.8363C1.1826 11.8109 0.719382 11.5617 0.375882 11.1063C-0.202356 10.3398 -0.10494 9.3457 0.609447 8.63047C3.16653 6.0707 5.72791 3.51445 8.28108 0.950391C8.69187 0.537891 9.0968 0.132422 9.69147 0H10.3163C10.8972 0.126953 11.2955 0.51875 11.6973 0.921875C14.1605 3.39609 16.6284 5.86602 19.1029 8.3293C19.5086 8.7332 19.8873 9.14062 20 9.72656H19.9996Z" fill="#FF6200"/>
</svg>
