<svg width="337" height="70" viewBox="0 0 337 70" fill="none" xmlns="http://www.w3.org/2000/svg">
<path d="M78.5903 18.7097H90.8485C95.0997 18.7097 98.6478 20.2361 101.489 23.2888C104.334 26.3123 105.755 30.0244 105.755 34.4249C105.755 38.8254 104.334 42.5229 101.489 45.6048C98.6441 48.6283 95.0997 50.1401 90.8485 50.1401H78.5903V18.7097ZM82.765 46.1913H90.8485C94.0505 46.1913 96.6697 45.0693 98.7061 42.8253C100.742 40.5521 101.759 37.7508 101.759 34.4286C101.759 31.1063 100.739 28.3086 98.7061 26.0318C96.6697 23.7878 94.0505 22.6659 90.8485 22.6659H82.765V46.1949V46.1913Z" fill="white"/>
<path d="M129.375 47.3132C127.098 49.59 124.301 50.7266 120.979 50.7266C117.656 50.7266 114.855 49.59 112.582 47.3132C110.305 45.0401 109.168 42.2388 109.168 38.9165C109.168 35.5942 110.305 32.7965 112.582 30.5198C114.855 28.243 117.656 27.1064 120.979 27.1064C124.301 27.1064 127.098 28.243 129.375 30.5198C131.681 32.8257 132.832 35.6234 132.832 38.9165C132.832 42.2096 131.678 45.0073 129.375 47.3132ZM120.979 46.9089C123.222 46.9089 125.109 46.1439 126.636 44.6175C128.162 43.0912 128.927 41.1896 128.927 38.9165C128.927 36.6434 128.162 34.7418 126.636 33.2155C125.109 31.6891 123.222 30.9241 120.979 30.9241C118.735 30.9241 116.891 31.6891 115.365 33.2155C113.839 34.7418 113.074 36.6434 113.074 38.9165C113.074 41.1896 113.839 43.0912 115.365 44.6175C116.891 46.1439 118.764 46.9089 120.979 46.9089Z" fill="white"/>
<path d="M148.008 50.7266C144.624 50.7266 141.812 49.6046 139.568 47.3606C137.324 45.0839 136.202 42.2716 136.202 38.9202C136.202 35.5688 137.324 32.7674 139.568 30.5234C141.812 28.2467 144.628 27.1101 148.008 27.1101C150.223 27.1101 152.212 27.642 153.979 28.7057C155.745 29.7694 157.061 31.1974 157.931 32.9933L154.653 34.8803C154.084 33.6818 153.206 32.7237 152.026 32.0061C150.842 31.2884 149.505 30.9278 148.008 30.9278C145.764 30.9278 143.877 31.6928 142.351 33.2191C140.854 34.7746 140.107 36.6762 140.107 38.9202C140.107 41.1642 140.854 43.022 142.351 44.5775C143.877 46.1038 145.764 46.8689 148.008 46.8689C149.505 46.8689 150.853 46.5191 152.048 45.8124C153.246 45.1094 154.157 44.1586 154.787 42.9601L158.11 44.8908C157.122 46.6867 155.731 48.111 153.935 49.1565C152.139 50.2057 150.165 50.7302 148.008 50.7302V50.7266Z" fill="white"/>
<path d="M180.52 18.7097V22.6622H166.601V32.8548H179.938V36.8073H166.601V50.1437H162.427V18.7134H180.524L180.52 18.7097Z" fill="white"/>
<path d="M187.165 23.6057C186.419 23.6057 185.788 23.3508 185.278 22.8444C184.768 22.3344 184.513 21.7224 184.513 21.0048C184.513 20.2871 184.768 19.6642 185.278 19.1396C185.788 18.6151 186.415 18.3528 187.165 18.3528C187.916 18.3528 188.499 18.6151 189.005 19.1396C189.515 19.6642 189.77 20.2835 189.77 21.0048C189.77 21.7261 189.515 22.338 189.005 22.8444C188.495 23.3544 187.883 23.6057 187.165 23.6057ZM189.096 50.1438H185.191V27.693H189.096V50.1438Z" fill="white"/>
<path d="M206.246 27.1064C208.88 27.1064 210.989 27.937 212.577 29.5981C214.162 31.2593 214.956 33.5142 214.956 36.3556V50.1401H211.051V36.5778C211.051 34.7819 210.555 33.3758 209.568 32.3558C208.581 31.3394 207.219 30.8294 205.481 30.8294C203.474 30.8294 201.889 31.4523 200.72 32.6945C199.554 33.9367 198.968 35.7873 198.968 38.2389V50.1401H195.062V27.6893H198.968V30.9241C200.523 28.3814 202.949 27.1064 206.242 27.1064H206.246Z" fill="white"/>
<path d="M238.981 31.5507V18.7097H242.886V50.1401H238.981V46.2787C237.065 49.2403 234.238 50.7229 230.493 50.7229C227.32 50.7229 224.639 49.5864 222.453 47.3096C220.239 45.0037 219.131 42.206 219.131 38.9129C219.131 35.6198 220.239 32.8658 222.453 30.5599C224.668 28.254 227.349 27.1028 230.493 27.1028C234.234 27.1028 237.065 28.5854 238.981 31.5471V31.5507ZM230.989 46.9526C233.262 46.9526 235.163 46.1876 236.69 44.6613C238.216 43.0766 238.981 41.1605 238.981 38.9129C238.981 36.6652 238.22 34.7382 236.69 33.2118C235.163 31.6563 233.262 30.8768 230.989 30.8768C228.715 30.8768 226.858 31.6563 225.331 33.2118C223.805 34.7382 223.04 36.6397 223.04 38.9129C223.04 41.186 223.805 43.073 225.331 44.6613C226.858 46.1876 228.745 46.9526 230.989 46.9526Z" fill="white"/>
<path d="M270.367 40.7125H251.552C251.942 42.6869 252.853 44.2387 254.292 45.3607C255.727 46.4827 257.523 47.0437 259.679 47.0437C262.645 47.0437 264.797 45.9509 266.145 43.7652L269.468 45.6521C267.253 49.0363 263.96 50.7266 259.588 50.7266C256.055 50.7266 253.151 49.6192 250.878 47.4043C248.663 45.1276 247.556 42.3007 247.556 38.9165C247.556 35.5324 248.649 32.6909 250.834 30.4761C253.02 28.2321 255.847 27.1101 259.322 27.1101C262.615 27.1101 265.293 28.2795 267.358 30.6145C269.453 32.8913 270.502 35.6744 270.502 38.9675C270.502 39.5358 270.458 40.1223 270.367 40.7198V40.7125ZM259.322 30.7894C257.257 30.7894 255.526 31.3722 254.135 32.5416C252.743 33.7073 251.884 35.2956 251.552 37.3028H266.55C266.222 35.2373 265.398 33.6344 264.08 32.4979C262.761 31.3613 261.176 30.793 259.319 30.793L259.322 30.7894Z" fill="white"/>
<path d="M278.899 27.6895V31.4598C280.185 28.6767 282.52 27.2852 285.904 27.2852V31.3724C283.988 31.2813 282.341 31.7913 280.965 32.8988C279.588 34.0062 278.899 35.7875 278.899 38.2428V50.1439H274.994V27.6932H278.899V27.6895Z" fill="white"/>
<path d="M289.004 50.6347C288.195 50.6347 287.507 50.3506 286.938 49.7824C286.37 49.2142 286.086 48.5257 286.086 47.7171C286.086 46.9085 286.37 46.2201 286.938 45.6519C287.507 45.0837 288.195 44.7996 289.004 44.7996C289.812 44.7996 290.537 45.0837 291.091 45.6519C291.644 46.2201 291.921 46.9085 291.921 47.7171C291.921 48.5257 291.644 49.2142 291.091 49.7824C290.537 50.3506 289.841 50.6347 289.004 50.6347Z" fill="white"/>
<path d="M305.346 38.5559L316.438 50.1401H311.59L301.353 39.4994V50.1401H297.448V18.7097H301.353V37.6124L311.054 27.6893H316.081L305.35 38.5559H305.346Z" fill="white"/>
<path d="M336.106 30.2938L324.609 46.4134H336.554V50.14H319.265V47.5354L330.714 31.4158H319.713V27.6892H336.102V30.2938H336.106Z" fill="white"/>
<path d="M49.3348 34.2866C49.3785 36.7855 48.7993 39.1425 47.7465 41.2189C46.3222 44.0311 44.0272 46.3261 41.2149 47.7468C39.1203 48.8105 36.7342 49.3897 34.2134 49.3351C26.2574 49.1639 19.7951 42.6104 19.7404 34.6508C19.7222 32.2065 20.2941 29.8969 21.3287 27.8606C22.7494 25.0483 25.0444 22.7533 27.8566 21.329C29.944 20.2726 32.3191 19.6934 34.829 19.7407C42.7449 19.8937 49.2036 26.367 49.3348 34.2866Z" fill="white"/>
<path d="M55.3346 62.103L62.2997 69.0681H49.2402L46.9415 66.7695C43.0911 68.2521 38.9055 69.0681 34.5341 69.0681C15.4638 69.0681 0 53.6079 0 34.5341C0 30.159 0.812352 25.977 2.29863 22.1266C3.46069 19.0994 5.04168 16.2798 6.96874 13.7371C7.00153 13.6898 7.03431 13.6461 7.07074 13.5987C8.9468 11.1398 11.1434 8.94316 13.5987 7.06711C19.4054 2.63378 26.6619 0 34.5341 0C53.6079 0 69.0681 15.4602 69.0681 34.5341C69.0681 42.4062 66.4343 49.6628 62.001 55.4694L50.9013 44.3697C52.6317 41.4992 53.6261 38.1332 53.6261 34.5341C53.6261 23.9917 45.0801 15.4456 34.5377 15.4456C30.9422 15.4456 27.5763 16.4401 24.7021 18.1705C22.0282 19.7806 19.7806 22.0282 18.1741 24.7021C18.145 24.7531 18.1158 24.8041 18.0867 24.8514C16.411 27.6928 15.4493 31.0005 15.4493 34.5341C15.4493 34.7854 15.4529 35.0368 15.4675 35.2881C15.85 45.2294 23.8423 53.2218 33.7836 53.6043C34.035 53.6189 34.2863 53.6225 34.5377 53.6225C38.0713 53.6225 41.3826 52.6608 44.2204 50.9851L55.3346 62.0994V62.103Z" fill="white"/>
</svg>
