<svg width="26" height="26" viewBox="0 0 26 26" fill="none" xmlns="http://www.w3.org/2000/svg">
<path d="M25.9999 13.8632C25.9935 13.8834 25.9828 13.903 25.9814 13.9233C25.9685 14.1152 25.9657 14.3078 25.9443 14.499C25.9122 14.7814 25.8765 15.0645 25.8244 15.3441C25.7481 15.7546 25.6725 16.1667 25.5669 16.5693C25.4571 16.9886 25.3158 17.3999 25.1789 17.8112C25.0219 18.2819 24.8236 18.7367 24.5918 19.1741C24.3628 19.6057 24.1224 20.0315 23.8621 20.4435C23.6417 20.7933 23.392 21.1242 23.143 21.4552C22.9975 21.6485 22.8327 21.8267 22.6708 22.0063C22.4732 22.225 22.2792 22.448 22.0673 22.6508C21.7884 22.9187 21.4953 23.1721 21.2042 23.4263C20.8461 23.7392 20.4624 24.0187 20.0615 24.2729C19.7305 24.4829 19.3967 24.69 19.0493 24.8696C18.607 25.0984 18.1569 25.3149 17.6968 25.5046C17.1975 25.7103 16.6824 25.8761 16.1496 26C16.1154 25.7313 16.0804 25.4655 16.0476 25.1998C16.0383 25.123 16.0305 25.0463 16.029 24.9688C16.0219 24.6371 16.0069 24.3047 16.0155 23.9731C16.024 23.6501 16.044 23.3257 16.084 23.0049C16.1325 22.6153 16.1867 22.225 16.2737 21.8433C16.3921 21.3198 16.5576 20.8092 16.7688 20.3146C16.9856 19.8056 17.2353 19.3146 17.5499 18.8605C17.7046 18.6368 17.8687 18.4188 18.042 18.2095C18.2025 18.0162 18.3737 17.8301 18.5528 17.6548C18.8966 17.3195 19.2775 17.0313 19.6927 16.7902C20.0522 16.5809 20.4288 16.4136 20.8262 16.2963C21.1122 16.2116 21.4011 16.145 21.6993 16.1261C21.9054 16.1131 22.1123 16.0885 22.3177 16.095C22.6494 16.1051 22.9797 16.1392 23.3028 16.2246C23.3149 16.2282 23.3292 16.2261 23.3713 16.229C23.2786 15.9342 23.2037 15.6489 23.0995 15.3752C22.9497 14.9798 22.7528 14.6069 22.5046 14.2658C22.3605 14.0688 22.2064 13.8784 22.0452 13.6959C21.7506 13.362 21.4104 13.0803 21.0359 12.8421C20.7142 12.6379 20.3746 12.4684 20.0194 12.333C19.6492 12.1918 19.269 12.0854 18.8809 12.0129C18.7126 11.9811 18.5407 11.9666 18.3702 11.9528C18.2204 11.9405 18.0699 11.9333 17.9194 11.9362C17.4457 11.9456 16.992 12.0434 16.5569 12.244C16.2181 12.4004 15.9313 12.6249 15.6517 12.8906C15.7373 12.7233 15.815 12.5713 15.8928 12.4185C16.1667 11.8804 16.3779 11.3178 16.5305 10.7319C16.6133 10.4155 16.6668 10.0939 16.716 9.77024C16.7745 9.38572 16.773 9.00047 16.7609 8.61594C16.7531 8.3748 16.7124 8.13366 16.671 7.89541C16.6033 7.5022 16.4934 7.1184 16.3336 6.75415C16.1967 6.44204 16.0533 6.12993 15.8757 5.84099C15.6802 5.52236 15.457 5.21967 15.2216 4.93C14.9755 4.62731 14.6923 4.3572 14.397 4.10012C14.0538 3.80177 13.6865 3.54108 13.2999 3.30645C13.2414 3.27097 13.1921 3.24635 13.1108 3.29052C12.7713 3.47735 12.4524 3.6946 12.145 3.93067C11.7983 4.19716 11.4802 4.49696 11.187 4.82066C10.861 5.18056 10.57 5.56943 10.326 5.99234C10.0878 6.40438 9.88731 6.83453 9.7582 7.29437C9.67474 7.59127 9.61767 7.89614 9.55775 8.19883C9.48 8.59132 9.49997 8.99033 9.50711 9.38717C9.51067 9.5711 9.54491 9.75576 9.57202 9.93897C9.60198 10.1388 9.62552 10.3402 9.67688 10.535C9.76961 10.8883 9.86805 11.2417 9.98718 11.5871C10.0849 11.871 10.2119 12.1455 10.3346 12.4206C10.4016 12.5698 10.4865 12.7103 10.5692 12.866C10.443 12.7552 10.3289 12.6517 10.2104 12.5517C9.99003 12.3663 9.74108 12.2309 9.47644 12.1223C9.2389 12.0245 8.9928 11.9572 8.741 11.9195C8.41857 11.8717 8.09187 11.8536 7.76731 11.9C7.44845 11.9456 7.12674 11.9847 6.8143 12.0593C6.28787 12.1846 5.78783 12.3881 5.31703 12.6618C4.9889 12.853 4.68788 13.0789 4.40326 13.3324C4.09867 13.6032 3.84116 13.9138 3.6129 14.2484C3.32686 14.667 3.10359 15.121 2.94237 15.604C2.8903 15.759 2.85606 15.9205 2.81041 16.0907C2.91241 16.0834 3.00158 16.0726 3.09075 16.0718C3.32543 16.0689 3.56083 16.0624 3.79551 16.074C3.9717 16.0827 4.14861 16.1051 4.32123 16.1428C4.55306 16.1935 4.78347 16.2558 5.00959 16.3282C5.46612 16.4737 5.88769 16.696 6.2786 16.9734C6.51328 17.14 6.74083 17.3195 6.95697 17.51C7.16241 17.6903 7.36143 17.8815 7.54261 18.0871C7.74163 18.3124 7.92353 18.5535 8.10043 18.7968C8.40716 19.2175 8.66039 19.6723 8.88366 20.1437C9.13689 20.6782 9.34946 21.23 9.48927 21.8071C9.58129 22.188 9.66689 22.5704 9.74037 22.9549C9.78102 23.1671 9.78602 23.3858 9.81384 23.6008C9.87732 24.0911 9.87233 24.5842 9.86234 25.0767C9.85735 25.3251 9.82026 25.572 9.79814 25.8197C9.79315 25.8732 9.78745 25.9261 9.78174 25.9913C9.61696 25.9449 9.46217 25.9102 9.31308 25.858C8.86583 25.7016 8.41358 25.5553 7.97631 25.3729C7.58969 25.2121 7.21305 25.0216 6.84569 24.8189C6.4662 24.6096 6.09313 24.3851 5.73433 24.1403C5.38337 23.8999 5.04954 23.632 4.71713 23.3648C4.50884 23.1975 4.31481 23.0128 4.11936 22.8296C3.92962 22.6515 3.73559 22.4755 3.56368 22.28C3.2705 21.9476 2.99017 21.6036 2.70983 21.2597C2.34603 20.8121 2.03716 20.3255 1.74898 19.8258C1.46579 19.3356 1.20685 18.8309 1.00498 18.2993C0.85661 17.9097 0.712518 17.5172 0.580553 17.1218C0.432181 16.6743 0.320902 16.2159 0.238157 15.7518C0.191791 15.4918 0.139718 15.2318 0.104765 14.9697C0.0712385 14.7148 0.0448455 14.4577 0.0355722 14.2013C0.0163125 13.6944 0.000619296 13.1868 0.00275927 12.6792C0.00418592 12.3939 0.0405655 12.1078 0.0676719 11.8232C0.0904983 11.5821 0.112611 11.3395 0.154698 11.1012C0.22175 10.724 0.298789 10.3481 0.384388 9.97446C0.504227 9.45307 0.667579 8.94471 0.85661 8.44577C0.957189 8.18 1.07203 7.91931 1.19045 7.66151C1.31029 7.40009 1.43797 7.14229 1.57208 6.88739C1.80605 6.44204 2.06998 6.01406 2.3603 5.60419C2.51937 5.3797 2.67844 5.15522 2.8475 4.93869C2.99302 4.75259 3.14924 4.57517 3.3076 4.39992C3.51303 4.17254 3.71705 3.94371 3.93604 3.73008C4.17857 3.49401 4.43465 3.27314 4.68859 3.04938C5.09448 2.69092 5.52889 2.37085 5.98471 2.08263C6.2893 1.89001 6.60387 1.71259 6.9156 1.53228C7.37498 1.26579 7.86218 1.05651 8.35437 0.862435C8.88438 0.653155 9.42793 0.482979 9.98218 0.354804C10.326 0.275147 10.6727 0.206352 11.0208 0.147696C11.2811 0.104247 11.5458 0.0883153 11.8083 0.0557284C12.4082 -0.0195835 13.0117 0.0021411 13.613 0.00938263C13.9133 0.0130034 14.2136 0.0579009 14.5132 0.091212C14.77 0.120178 15.0268 0.150593 15.2808 0.197662C15.5996 0.257043 15.9185 0.323665 16.2323 0.407667C16.584 0.501807 16.9357 0.602464 17.2759 0.729915C17.7018 0.888505 18.1198 1.06954 18.535 1.25565C19.1691 1.53879 19.7647 1.8958 20.3318 2.29843C20.6649 2.53523 20.9867 2.79013 21.3055 3.04793C21.5088 3.21159 21.6993 3.3919 21.8904 3.57004C22.0595 3.72791 22.2307 3.8865 22.3862 4.05812C22.6266 4.32389 22.857 4.59907 23.0888 4.87352C23.4861 5.34494 23.8314 5.85547 24.1445 6.387C24.3621 6.75559 24.5626 7.13722 24.748 7.52392C25.0098 8.06921 25.2252 8.63405 25.405 9.21337C25.5634 9.72607 25.6918 10.2467 25.7916 10.7739C25.8387 11.0194 25.8665 11.2692 25.8965 11.5184C25.9236 11.7421 25.9443 11.9673 25.965 12.1918C25.9742 12.2888 25.9764 12.3866 25.9842 12.4836C25.9856 12.5039 25.9963 12.5235 26.0028 12.5438C26.0028 12.984 26.0028 13.4236 26.0028 13.8639L25.9999 13.8632Z" fill="#126630"/>
</svg>
