<svg width="20" height="22" viewBox="0 0 20 22" fill="none" xmlns="http://www.w3.org/2000/svg">
<path d="M10.398 16.804L10.6973 17.381L10.398 16.804ZM9.60196 16.804L9.30268 17.381L9.60196 16.804ZM16.35 8C16.35 10.2726 15.1922 12.1262 13.7935 13.537C12.3954 14.9472 10.8111 15.8575 10.0988 16.227L10.6973 17.381C11.468 16.9813 13.1846 15.9977 14.7167 14.4523C16.2483 12.9075 17.65 10.7437 17.65 8H16.35ZM10 1.65C13.507 1.65 16.35 4.49299 16.35 8H17.65C17.65 3.77502 14.225 0.35 10 0.35V1.65ZM3.65 8C3.65 4.49299 6.49299 1.65 10 1.65V0.35C5.77502 0.35 2.35 3.77502 2.35 8H3.65ZM9.90124 16.227C9.18895 15.8575 7.60457 14.9472 6.20648 13.537C4.80779 12.1262 3.65 10.2726 3.65 8H2.35C2.35 10.7437 3.75173 12.9075 5.28329 14.4523C6.81545 15.9977 8.53205 16.9813 9.30268 17.381L9.90124 16.227ZM10.0988 16.227C10.0335 16.2608 9.96646 16.2608 9.90124 16.227L9.30268 17.381C9.7432 17.6095 10.2568 17.6095 10.6973 17.381L10.0988 16.227ZM12.35 8C12.35 9.29787 11.2979 10.35 10 10.35V11.65C12.0158 11.65 13.65 10.0158 13.65 8H12.35ZM10 5.65C11.2979 5.65 12.35 6.70213 12.35 8H13.65C13.65 5.98416 12.0158 4.35 10 4.35V5.65ZM7.65 8C7.65 6.70213 8.70213 5.65 10 5.65V4.35C7.98416 4.35 6.35 5.98416 6.35 8H7.65ZM10 10.35C8.70213 10.35 7.65 9.29787 7.65 8H6.35C6.35 10.0158 7.98416 11.65 10 11.65V10.35Z" fill="#A1A1A1"/>
<path d="M17.7942 16.5C18.5841 16.9561 19 17.4734 19 18C19 18.5266 18.5841 19.0439 17.7942 19.5C17.0043 19.9561 15.8682 20.3348 14.5 20.5981C13.1318 20.8614 11.5798 21 10 21C8.42017 21 6.86817 20.8614 5.5 20.5981C4.13183 20.3348 2.99569 19.9561 2.20577 19.5C1.41586 19.0439 1 18.5266 1 18C1 17.4734 1.41586 16.9561 2.20577 16.5" stroke="#A1A1A1" stroke-width="1.3" stroke-linecap="round"/>
</svg>
