<svg width="18" height="18" viewBox="0 0 18 18" fill="none" xmlns="http://www.w3.org/2000/svg">
<path d="M8.98925 18C4.08552 18.0133 0.00974012 13.9632 1.7603e-05 9.06704C-0.00970491 4.0501 4.00928 0.00512312 9.00921 4.84582e-06C13.9324 -0.00511343 17.9897 4.04498 18 8.97388C18.0102 13.9535 13.9841 17.9861 8.98925 18ZM8.1915 6.54577C8.1915 7.33757 8.19712 8.12937 8.18843 8.92065C8.18536 9.20881 8.28207 9.43811 8.48573 9.6367C8.85519 9.99805 9.21799 10.3671 9.58386 10.7325C10.0127 11.1614 10.4379 11.5944 10.8718 12.0177C11.2111 12.3484 11.7003 12.3473 12.0222 12.029C12.3527 11.7019 12.3471 11.2034 11.9981 10.8508C11.315 10.1613 10.6283 9.47548 9.93848 8.79321C9.84484 8.70057 9.80595 8.60844 9.80595 8.47587C9.81055 7.04583 9.80902 5.61578 9.80799 4.18522C9.80799 4.09002 9.80799 3.99175 9.78548 3.90116C9.68058 3.48606 9.2973 3.23322 8.87361 3.29157C8.49034 3.34429 8.19405 3.68772 8.19252 4.0936C8.18945 4.91099 8.1915 5.72838 8.1915 6.54577Z" fill="#FF6200"/>
</svg>
