<svg width="56" height="48" viewBox="0 0 56 48" fill="none" xmlns="http://www.w3.org/2000/svg">
<path d="M20.0104 47.9984C19.747 47.9984 19.5442 47.9984 19.3413 47.9984C16.2595 47.9984 13.1793 48.0016 10.0974 47.9984C7.73039 47.9951 6.01934 46.2759 6.01934 43.8991C6.01771 37.3004 6.01934 30.7033 6.01934 24.1046C6.01934 23.8821 6.01934 23.6613 6.01934 23.2867C5.09511 24.0621 4.29684 24.7736 3.44786 25.4214C3.09943 25.688 2.66267 25.9203 2.23736 25.9874C1.32949 26.128 0.524676 25.6193 0.171342 24.8129C-0.17872 24.0146 0.00939727 23.1068 0.719336 22.4917C2.27826 21.1455 3.85844 19.8238 5.43209 18.4922C12.327 12.6607 19.2219 6.82753 26.1185 0.992714C26.2133 0.912561 26.3066 0.829137 26.4031 0.748984C27.594 -0.245568 28.4282 -0.253747 29.6158 0.748984C32.6699 3.32533 35.7157 5.90986 38.7665 8.49111C44.1058 13.0059 49.4434 17.5206 54.7843 22.0353C55.3274 22.495 55.8901 22.9416 55.9817 23.7153C56.0831 24.5822 55.7625 25.2693 55.0248 25.7355C54.3246 26.1771 53.4364 26.1297 52.7494 25.5817C51.8562 24.8685 50.9941 24.1177 49.9963 23.2802C49.9963 23.6008 49.9963 23.8118 49.9963 24.0228C49.9963 30.6215 49.9963 37.2186 49.9963 43.8173C49.9963 46.3168 48.3131 47.9951 45.8086 47.9967C42.7693 47.9967 39.73 47.9967 36.6907 47.9967C36.4862 47.9967 36.2817 47.9967 36.0053 47.9967V47.2868C36.0053 42.9994 36.0053 38.7121 36.0053 34.4247C36.0053 32.7857 35.2348 32.0103 33.6055 32.0103C29.8579 32.0103 26.1103 32.0087 22.3643 32.0103C20.8037 32.0103 20.0153 32.7938 20.0136 34.3462C20.012 38.6548 20.0136 42.9634 20.0136 47.2721C20.0136 47.4962 20.0136 47.7203 20.0136 48L20.0104 47.9984ZM26.0072 20.0184C26.0072 20.6433 26.004 21.2011 26.0072 21.7589C26.0154 23.0757 26.8448 24.0097 28.0029 24.013C29.1611 24.0163 29.9953 23.0822 30.0051 21.7671C30.01 21.1945 30.0051 20.6204 30.0051 20.0201C30.6775 20.0201 31.2598 20.0282 31.8405 20.0201C33.0952 20.0004 34.021 19.1269 33.9981 17.9933C33.9752 16.8728 33.0723 16.0435 31.8438 16.0255C31.2467 16.0173 30.6496 16.0255 30.0051 16.0255C30.0051 15.3974 30.0084 14.8396 30.0051 14.2818C29.9953 12.965 29.166 12.0326 28.0062 12.0309C26.8415 12.0309 26.0154 12.9568 26.0072 14.2768C26.004 14.8494 26.0072 15.4235 26.0072 16.0239C25.3137 16.0239 24.7117 16.0124 24.1097 16.0255C22.8976 16.0533 21.993 16.9317 22.0126 18.0473C22.0322 19.1416 22.9221 19.989 24.1015 20.0184C24.7035 20.0331 25.3071 20.0217 26.0072 20.0217V20.0184Z" fill="#FF6200"/>
</svg>
