<svg width="48" height="35" viewBox="0 0 48 35" fill="none" xmlns="http://www.w3.org/2000/svg">
<path d="M0.0301717 10.3037H47.9981C47.9981 10.5211 47.9981 10.7127 47.9981 10.9043C47.9981 16.9173 47.9981 22.9288 47.9981 28.9418C47.9981 32.0562 45.796 34.2555 42.6787 34.2569C30.2409 34.2569 17.8031 34.2298 5.36534 34.277C2.42249 34.287 -0.0255967 31.9061 0.0101523 28.9032C0.0802202 22.9088 0.0316016 16.9144 0.0316016 10.9186C0.0316016 10.7255 0.0316016 10.5325 0.0316016 10.3037H0.0301717ZM32.5245 25.6929C34.2362 25.6929 35.9493 25.7058 37.6609 25.6872C38.6648 25.6758 39.4284 24.9136 39.4284 23.9798C39.4284 23.0461 38.6648 22.2753 37.6624 22.2725C34.2734 22.2582 30.8844 22.2639 27.4954 22.271C26.9134 22.271 26.4129 22.4941 26.0697 22.9817C25.6793 23.5365 25.6107 24.1343 25.931 24.7449C26.2699 25.3912 26.8347 25.6872 27.5483 25.6901C29.207 25.6972 30.8658 25.6929 32.5245 25.6915V25.6929Z" fill="#FF6200"/>
<path d="M47.9979 6.83757H0.111504C-0.43617 3.48146 1.04241 0.713058 4.35419 0.0595675C4.6316 0.00522914 4.92188 0.00236923 5.20501 0.00236923C17.75 -0.000490684 30.2951 -0.000490684 42.8401 0.000939274C45.7386 0.000939274 47.9879 2.25598 47.9994 5.15308C48.0008 5.71505 47.9994 6.27702 47.9994 6.83757H47.9979Z" fill="#FF6200"/>
</svg>
