<svg width="33" height="49" viewBox="0 0 33 49" fill="none" xmlns="http://www.w3.org/2000/svg">
<path d="M17.4916 0C18.1223 0.177781 18.772 0.304497 19.3791 0.540907C22.7938 1.87143 24.7513 5.17077 24.3853 8.92497C24.06 12.2631 21.2401 15.1851 17.7819 15.7705C13.5293 16.4892 9.39973 13.5331 8.69049 9.26068C7.95857 4.85682 10.8929 0.783938 15.2958 0.0869991C15.3686 0.0756514 15.4358 0.0293149 15.5057 0C16.1677 0 16.8296 0 17.4916 0Z" fill="#FF6200"/>
<path d="M7.27885 48.4167C7.04433 48.3373 6.80887 48.2607 6.57529 48.1794C4.95824 47.6177 3.82347 46.1103 3.77808 44.4015C3.69392 41.279 4.41734 38.3352 5.80649 35.4766C5.88687 35.6364 5.9455 35.7376 5.99183 35.8454C7.20131 38.6795 9.21458 40.7258 12.0326 41.9665C12.3503 42.1065 12.3863 42.2511 12.3484 42.5632C12.2539 43.3424 12.286 44.1415 12.1376 44.9084C11.7848 46.7325 10.6718 47.8815 8.85618 48.3316C8.79944 48.3458 8.75027 48.3884 8.69826 48.4177H7.2798L7.27885 48.4167Z" fill="#FF6200"/>
<path d="M24.3004 48.4165C23.994 48.3087 23.6763 48.2255 23.3832 48.0874C21.7585 47.3224 20.8819 46.0495 20.8006 44.2405C20.7751 43.676 20.7618 43.1039 20.6625 42.5507C20.6011 42.2074 20.6938 42.0949 20.9888 41.9653C23.6914 40.7719 25.6603 38.8277 26.8896 36.1373C26.9738 35.952 27.056 35.7657 27.1402 35.5803C27.1459 35.5671 27.1629 35.5595 27.266 35.4688C27.6508 36.4919 28.0631 37.4669 28.3866 38.4702C29.0173 40.4296 29.3313 42.4466 29.2244 44.5072C29.127 46.3682 27.7861 47.9011 25.9752 48.32C25.8872 48.3408 25.804 48.3834 25.7189 48.4165H24.3004Z" fill="#FF6200"/>
<path d="M25.0438 28.0813H7.96454C7.96454 27.3853 7.90118 26.6921 7.98061 26.0141C8.08463 25.1243 7.78014 24.6316 6.97161 24.1843C4.93848 23.0609 3.14082 21.5951 1.47838 19.9714C0.205542 18.7289 -0.235127 17.231 0.287813 15.5298C0.817372 13.8059 2.04765 12.795 3.8179 12.5255C5.22501 12.3108 6.45907 12.7666 7.47848 13.7671C8.67471 14.9416 9.94471 16.0262 11.4511 16.7799C15.6384 18.8726 19.6054 18.3771 23.3341 15.6565C24.1322 15.074 24.849 14.3789 25.5828 13.7122C26.8556 12.5567 28.3223 12.169 29.9517 12.6995C31.564 13.2252 32.5579 14.3874 32.8538 16.0565C33.1111 17.509 32.7035 18.8093 31.6453 19.8589C29.8372 21.6519 27.8382 23.2065 25.6159 24.4519C25.161 24.7072 25.006 24.9692 25.0324 25.4713C25.0759 26.3176 25.0447 27.1687 25.0447 28.0794L25.0438 28.0813Z" fill="#FF6200"/>
<path d="M25.0117 30.9412C25.2718 35.1077 22.5124 38.8666 18.5019 39.8151C13.6026 40.9735 8.79113 37.7215 8.06015 32.7465C7.99395 32.2963 8.00814 31.8348 7.96085 31.3819C7.92303 31.0197 8.07055 30.9327 8.41665 30.9346C11.1562 30.9478 13.8967 30.9422 16.6362 30.9422C19.2348 30.9422 21.8325 30.9422 24.4311 30.9422H25.0127L25.0117 30.9412Z" fill="#FF6200"/>
</svg>
