<svg width="48" height="52" viewBox="0 0 48 52" fill="none" xmlns="http://www.w3.org/2000/svg">
<path d="M12.9329 29.6058C10.7007 29.2806 8.64061 28.5815 6.7933 27.3445C2.98699 24.7928 0.730673 21.2458 0.140559 16.6622C0.0575511 16.0133 0.0318939 15.3537 0.0288754 14.6972C0.0168015 11.7383 0.0892451 8.77783 0.00170908 5.82042C-0.0631883 3.6092 1.72828 1.70648 3.9846 1.84934C5.09238 1.91925 6.20922 1.8615 7.16156 1.8615C7.52679 1.29919 7.76072 0.759687 8.15464 0.39495C8.42781 0.141154 8.9168 0.0378115 9.31524 0.0241339C10.2721 -0.00930038 11.0705 0.809839 11.0841 1.78095C11.1007 3.03777 11.0931 4.2946 11.0871 5.55294C11.0826 6.52861 10.3762 7.34167 9.47522 7.42678C8.49271 7.51948 7.64904 6.91615 7.42265 5.95567C7.397 5.84625 7.39096 5.73075 7.37285 5.59701H3.71294C3.71294 5.7809 3.71294 5.96479 3.71294 6.14868C3.71294 9.01035 3.70388 11.8735 3.71445 14.7352C3.73557 20.0725 7.18419 24.4539 12.3307 25.7032C18.3405 27.1606 24.5707 23.0482 25.6196 16.913C25.7554 16.1182 25.8264 15.3021 25.8354 14.4951C25.8611 11.7489 25.846 9.00275 25.846 6.25658V5.60461H22.2132C22.1634 5.79002 22.1242 5.99215 22.0563 6.18363C21.7454 7.07116 20.873 7.58027 19.9584 7.41614C19.1283 7.26721 18.4779 6.48606 18.4703 5.60157C18.4613 4.38274 18.4658 3.16391 18.4688 1.9466C18.4718 0.913181 19.151 0.098601 20.0746 0.0104562C21.1387 -0.0913662 21.9627 0.557562 22.1529 1.64721C22.1619 1.70344 22.174 1.75816 22.1921 1.86302C23.3753 1.86302 24.5646 1.8615 25.7524 1.86302C27.9453 1.86758 29.5285 3.45266 29.53 5.65628C29.5331 8.82798 29.5406 11.9997 29.5285 15.1714C29.4999 22.1454 24.133 28.4083 17.275 29.4873C17.0697 29.5192 16.8675 29.5754 16.6215 29.6286C16.6215 30.8505 16.6094 32.0663 16.6245 33.2821C16.6456 34.9827 16.6019 36.6893 16.7362 38.3808C17.0894 42.8625 20.6225 46.9005 24.9963 47.9308C31.1555 49.3822 37.034 45.7394 38.4617 39.5525C38.6504 38.7319 38.7349 37.8702 38.7425 37.0267C38.7726 33.4493 38.747 29.8703 38.7666 26.2928C38.7681 25.8642 38.6247 25.7138 38.2338 25.5801C34.9407 24.4509 32.9138 21.264 33.2398 17.7792C33.5522 14.4389 36.2613 11.6182 39.5922 11.1638C43.3743 10.6486 46.8682 13.0772 47.7949 16.8659C48.6793 20.4798 46.6298 24.2716 43.0695 25.5299C42.5578 25.7108 42.4265 25.9448 42.431 26.4661C42.4567 30.0055 42.4461 33.545 42.4431 37.0845C42.4371 44.402 37.369 50.4886 30.2167 51.7727C22.2495 53.2028 14.4738 47.7272 13.1729 39.7501C13.028 38.8595 12.9586 37.9477 12.9465 37.0434C12.9163 34.5891 12.9359 32.1332 12.9359 29.6028L12.9329 29.6058ZM38.756 18.5741C38.7575 19.5604 39.6148 20.4205 40.5988 20.4236C41.5708 20.4266 42.4431 19.5452 42.4356 18.568C42.428 17.5771 41.5738 16.7185 40.5928 16.7185C39.6163 16.7185 38.7545 17.5893 38.756 18.5741Z" fill="#FF6200"/>
</svg>
