<svg width="28" height="31" viewBox="0 0 28 31" fill="none" xmlns="http://www.w3.org/2000/svg">
<path d="M18.2943 16.0497C18.6498 16.2011 18.9824 16.3279 19.3001 16.4826C19.7421 16.6975 20.1849 16.9148 20.6072 17.1658C21.2854 17.5691 21.4862 18.3634 21.101 19.0054C20.7166 19.6458 19.9207 19.8433 19.2482 19.44C17.9856 18.6819 16.6399 18.1601 15.178 17.9527C12.3343 17.5477 9.702 18.1173 7.34302 19.7627C4.69266 21.6122 3.17323 24.1786 2.73288 27.3812C2.67114 27.8273 2.67938 28.2833 2.65386 28.7352C2.61517 29.4085 2.12214 29.9484 1.49248 30.0085C0.790377 30.076 0.170588 29.6752 0.0479475 29.0019C-0.0203692 28.6241 -0.00637659 28.2199 0.0323088 27.8339C0.573904 22.3834 3.34279 18.5231 8.30851 16.239C8.36365 16.2135 8.4188 16.1855 8.49123 16.1501C6.23267 14.406 4.99144 12.1482 4.99556 9.27399C4.99885 6.99567 5.83594 5.04082 7.43027 3.43086C10.6568 0.172231 15.8917 0.134369 19.1453 3.35019C20.9594 5.14289 21.8212 7.33478 21.6517 9.8946C21.4829 12.4421 20.2985 14.457 18.2934 16.0505L18.2943 16.0497ZM7.63933 9.33819C7.64263 12.5129 10.1613 15.0422 13.3244 15.048C16.4818 15.0537 19.0548 12.4791 19.0449 9.3242C19.0342 6.15035 16.4818 3.61276 13.3104 3.62511C10.1358 3.63745 7.63604 6.15529 7.63933 9.33902V9.33819Z" fill="#FF6200"/>
<path d="M21.0319 26.8133C21.6747 25.8494 22.3019 24.9119 22.9275 23.9728C23.7983 22.6657 24.6642 21.3554 25.5391 20.0508C25.8568 19.5775 26.2988 19.338 26.8799 19.4334C27.4569 19.5273 27.8166 19.8779 27.9615 20.4351C28.0792 20.8862 27.9121 21.2747 27.6627 21.6492C26.1326 23.9366 24.6099 26.2289 23.0847 28.5196C22.8912 28.8101 22.7036 29.1048 22.5027 29.3904C22.0673 30.0069 21.3191 30.1723 20.687 29.76C19.3552 28.8899 18.0317 28.0084 16.7156 27.1154C16.0933 26.6931 15.9468 25.8988 16.3444 25.293C16.7493 24.6757 17.5477 24.4971 18.184 24.9111C19.1297 25.5268 20.0606 26.1639 21.0319 26.8141V26.8133Z" fill="#FF6200"/>
</svg>
