<svg width="183" height="38" viewBox="0 0 183 38" fill="none" xmlns="http://www.w3.org/2000/svg">
<path d="M42.7332 10.1955H49.3985C51.71 10.1955 53.6393 11.0254 55.1843 12.6853C56.7313 14.3294 57.5038 16.3478 57.5038 18.7406C57.5038 21.1333 56.7313 23.1438 55.1843 24.8196C53.6373 26.4636 51.71 27.2856 49.3985 27.2856H42.7332V10.1955ZM45.0031 25.1385H49.3985C51.1396 25.1385 52.5638 24.5284 53.671 23.3082C54.7783 22.0722 55.3309 20.549 55.3309 18.7426C55.3309 16.9361 54.7763 15.4148 53.671 14.1769C52.5638 12.9567 51.1396 12.3466 49.3985 12.3466H45.0031V25.1405V25.1385Z" fill="#FF6200"/>
<path d="M70.3472 25.7486C69.1092 26.9865 67.588 27.6045 65.7815 27.6045C63.9751 27.6045 62.4519 26.9865 61.2158 25.7486C59.9779 24.5126 59.3599 22.9893 59.3599 21.1829C59.3599 19.3764 59.9779 17.8552 61.2158 16.6172C62.4519 15.3792 63.9751 14.7612 65.7815 14.7612C67.588 14.7612 69.1092 15.3792 70.3472 16.6172C71.6011 17.871 72.227 19.3923 72.227 21.1829C72.227 22.9735 71.5991 24.4947 70.3472 25.7486ZM65.7815 25.5287C67.0017 25.5287 68.0277 25.1127 68.8577 24.2828C69.6876 23.4528 70.1036 22.4189 70.1036 21.1829C70.1036 19.9469 69.6876 18.9129 68.8577 18.083C68.0277 17.253 67.0017 16.837 65.7815 16.837C64.5614 16.837 63.5591 17.253 62.7292 18.083C61.8992 18.9129 61.4833 19.9469 61.4833 21.1829C61.4833 22.4189 61.8992 23.4528 62.7292 24.2828C63.5591 25.1127 64.5772 25.5287 65.7815 25.5287Z" fill="#FF6200"/>
<path d="M80.4788 27.6045C78.6386 27.6045 77.1095 26.9945 75.8893 25.7743C74.6692 24.5363 74.0591 23.0072 74.0591 21.1849C74.0591 19.3625 74.6692 17.8393 75.8893 16.6192C77.1095 15.3812 78.6406 14.7632 80.4788 14.7632C81.6831 14.7632 82.7646 15.0524 83.7253 15.6307C84.6859 16.2091 85.401 16.9856 85.8744 17.9621L84.0917 18.9882C83.7827 18.3365 83.3053 17.8155 82.6636 17.4253C82.0198 17.0351 81.2929 16.839 80.4788 16.839C79.2586 16.839 78.2326 17.255 77.4026 18.0849C76.5885 18.9307 76.1825 19.9647 76.1825 21.1849C76.1825 22.405 76.5885 23.4152 77.4026 24.261C78.2326 25.0909 79.2586 25.5069 80.4788 25.5069C81.2929 25.5069 82.0258 25.3168 82.6755 24.9325C83.3271 24.5502 83.8223 24.0332 84.165 23.3815L85.9715 24.4313C85.4347 25.4079 84.678 26.1823 83.7015 26.7508C82.725 27.3213 81.6514 27.6065 80.4788 27.6065V27.6045Z" fill="#FF6200"/>
<path d="M98.1574 10.1955V12.3446H90.5888V17.8869H97.8404V20.036H90.5888V27.2876H88.3188V10.1975H98.1593L98.1574 10.1955Z" fill="#FF6200"/>
<path d="M101.77 12.8577C101.364 12.8577 101.022 12.719 100.744 12.4437C100.467 12.1664 100.328 11.8336 100.328 11.4434C100.328 11.0532 100.467 10.7145 100.744 10.4292C101.022 10.144 101.362 10.0014 101.77 10.0014C102.178 10.0014 102.495 10.144 102.771 10.4292C103.048 10.7145 103.187 11.0512 103.187 11.4434C103.187 11.8356 103.048 12.1684 102.771 12.4437C102.493 12.721 102.161 12.8577 101.77 12.8577ZM102.82 27.2876H100.697V15.0801H102.82V27.2876Z" fill="#FF6200"/>
<path d="M112.145 14.7612C113.578 14.7612 114.724 15.2128 115.588 16.116C116.45 17.0193 116.881 18.2454 116.881 19.7904V27.2856H114.758V19.9112C114.758 18.9347 114.489 18.1701 113.952 17.6155C113.415 17.0629 112.674 16.7855 111.729 16.7855C110.638 16.7855 109.776 17.1243 109.141 17.7997C108.507 18.4751 108.188 19.4814 108.188 20.8145V27.2856H106.064V15.0781H108.188V16.837C109.034 15.4545 110.353 14.7612 112.143 14.7612H112.145Z" fill="#FF6200"/>
<path d="M129.945 17.1777V10.1955H132.068V27.2856H129.945V25.186C128.903 26.7964 127.366 27.6026 125.33 27.6026C123.604 27.6026 122.147 26.9846 120.958 25.7466C119.754 24.4927 119.152 22.9715 119.152 21.1809C119.152 19.3903 119.754 17.8928 120.958 16.639C122.162 15.3851 123.62 14.7592 125.33 14.7592C127.364 14.7592 128.903 15.5654 129.945 17.1758V17.1777ZM125.599 25.5525C126.835 25.5525 127.869 25.1365 128.699 24.3065C129.529 23.4449 129.945 22.403 129.945 21.1809C129.945 19.9587 129.531 18.9109 128.699 18.081C127.869 17.2352 126.835 16.8113 125.599 16.8113C124.363 16.8113 123.353 17.2352 122.523 18.081C121.693 18.9109 121.277 19.9449 121.277 21.1809C121.277 22.4169 121.693 23.4429 122.523 24.3065C123.353 25.1365 124.379 25.5525 125.599 25.5525Z" fill="#FF6200"/>
<path d="M147.011 22.1594H136.781C136.993 23.233 137.488 24.0768 138.27 24.6869C139.051 25.2969 140.027 25.602 141.2 25.602C142.812 25.602 143.983 25.0078 144.716 23.8193L146.522 24.8453C145.318 26.6855 143.527 27.6045 141.15 27.6045C139.229 27.6045 137.65 27.0024 136.414 25.7981C135.21 24.5601 134.608 23.023 134.608 21.1829C134.608 19.3427 135.202 17.7977 136.39 16.5934C137.579 15.3733 139.116 14.7632 141.006 14.7632C142.796 14.7632 144.252 15.399 145.375 16.6687C146.514 17.9067 147.085 19.42 147.085 21.2106C147.085 21.5196 147.061 21.8385 147.011 22.1634V22.1594ZM141.006 16.7638C139.882 16.7638 138.942 17.0807 138.185 17.7165C137.428 18.3504 136.961 19.214 136.781 20.3054H144.935C144.757 19.1823 144.31 18.3107 143.592 17.6927C142.875 17.0747 142.014 16.7657 141.004 16.7657L141.006 16.7638Z" fill="#FF6200"/>
<path d="M151.65 15.0781V17.1282C152.349 15.6149 153.619 14.8582 155.459 14.8582V17.0807C154.417 17.0312 153.522 17.3085 152.773 17.9106C152.025 18.5128 151.65 19.4814 151.65 20.8164V27.2876H149.527V15.0801H151.65V15.0781Z" fill="#FF6200"/>
<path d="M157.145 27.555C156.705 27.555 156.331 27.4005 156.022 27.0915C155.713 26.7825 155.558 26.4082 155.558 25.9684C155.558 25.5287 155.713 25.1543 156.022 24.8453C156.331 24.5363 156.705 24.3818 157.145 24.3818C157.585 24.3818 157.979 24.5363 158.28 24.8453C158.581 25.1543 158.732 25.5287 158.732 25.9684C158.732 26.4082 158.581 26.7825 158.28 27.0915C157.979 27.4005 157.601 27.555 157.145 27.555Z" fill="#FF6200"/>
<path d="M166.031 20.9868L172.062 27.2856H169.426L163.86 21.4998V27.2856H161.736V10.1955H163.86V20.4737L169.135 15.0781H171.868L166.033 20.9868H166.031Z" fill="#FF6200"/>
<path d="M182.756 16.4944L176.505 25.2593H183V27.2857H173.599V25.8694L179.825 17.1045H173.843V15.0781H182.754V16.4944H182.756Z" fill="#FF6200"/>
<path d="M26.8257 18.6653C26.8495 20.0241 26.5345 21.3057 25.9621 22.4347C25.1876 23.9639 23.9397 25.2117 22.4105 25.9843C21.2716 26.5626 19.9742 26.8776 18.6035 26.8479C14.2775 26.7548 10.7636 23.1914 10.7339 18.8634C10.724 17.5343 11.035 16.2784 11.5975 15.1712C12.37 13.642 13.6179 12.3941 15.147 11.6197C16.282 11.0452 17.5735 10.7303 18.9382 10.756C23.2425 10.8392 26.7544 14.3591 26.8257 18.6653Z" fill="#FF6200"/>
<path d="M30.088 33.7905L33.8752 37.5777H26.7742L25.5243 36.3279C23.4306 37.134 21.1547 37.5777 18.7778 37.5777C8.4084 37.5777 0 29.1713 0 18.8C0 16.4211 0.441713 14.1471 1.24987 12.0535C1.88174 10.4074 2.74139 8.87431 3.78923 7.49173C3.80705 7.46598 3.82488 7.44221 3.84469 7.41646C4.86479 6.07944 6.0592 4.88503 7.39424 3.86493C10.5516 1.45432 14.4973 0.0222168 18.7778 0.0222168C29.1491 0.0222168 37.5555 8.42863 37.5555 18.8C37.5555 23.0804 36.1234 27.0261 33.7128 30.1835L27.6774 24.1481C28.6183 22.5872 29.159 20.757 29.159 18.8C29.159 13.0676 24.5121 8.42072 18.7797 8.42072C16.8247 8.42072 14.9945 8.96146 13.4316 9.90233C11.9778 10.7778 10.7556 12 9.88209 13.4539C9.86625 13.4816 9.8504 13.5093 9.83456 13.5351C8.9234 15.0801 8.40047 16.8786 8.40047 18.8C8.40047 18.9367 8.40245 19.0733 8.41038 19.21C8.61836 24.6155 12.9642 28.9614 18.3697 29.1694C18.5064 29.1773 18.6431 29.1793 18.7797 29.1793C20.7011 29.1793 22.5016 28.6563 24.0446 27.7452L30.088 33.7885V33.7905Z" fill="url(#paint0_linear_363_369)"/>
<defs>
<linearGradient id="paint0_linear_363_369" x1="18.7797" y1="0.0261784" x2="18.7797" y2="37.5797" gradientUnits="userSpaceOnUse">
<stop stop-color="#E65800"/>
<stop offset="1" stop-color="#FF6200"/>
</linearGradient>
</defs>
</svg>
