<svg width="48" height="49" viewBox="0 0 48 49" fill="none" xmlns="http://www.w3.org/2000/svg">
<path d="M22.3992 0C23.4615 0 24.5238 0 25.5849 0C25.6893 0.0281707 25.7914 0.0692529 25.8971 0.0833383C26.761 0.197195 27.6366 0.255884 28.49 0.426082C33.9222 1.51183 38.5117 4.11527 42.0952 8.34439C47.4195 14.63 49.159 21.8534 47.2493 29.8774C46.0872 34.7603 43.4967 38.8321 39.7265 42.134C36.2252 45.1999 32.1733 47.1049 27.5685 47.808C26.9089 47.9089 26.2469 47.9888 25.5849 48.0791H22.398C22.2478 48.0475 22.0976 48.0099 21.9461 47.9864C20.9602 47.8409 19.9625 47.7552 18.9906 47.5463C14.88 46.6659 11.2425 44.816 8.11198 42.0072C3.823 38.156 1.18552 33.3834 0.278186 27.6707C0.170198 26.9946 0.0915547 26.3138 0 25.6353C0 24.5707 0 23.5073 0 22.4426C0.0305182 22.3065 0.0680792 22.1715 0.090381 22.0353C0.299314 20.7594 0.416691 19.4601 0.73009 18.21C2.00012 13.1393 4.68338 8.92893 8.67892 5.58014C12.0887 2.72082 16.0056 0.935502 20.4144 0.271143C21.0752 0.171372 21.7372 0.090381 22.3992 0ZM19.7817 28.2646C22.0659 28.2646 24.282 28.2646 26.4992 28.2646C29.1837 28.2646 31.5277 27.3983 33.5313 25.5766C36.5198 22.8593 37.5269 18.0257 35.7674 14.387C33.9187 10.564 30.8223 8.61319 26.5978 8.55567C22.6164 8.50168 18.6337 8.54393 14.6523 8.54393C14.5009 8.54393 14.3494 8.54393 14.1804 8.54393V39.5012H19.784V28.2646H19.7817Z" fill="#FF6200"/>
<path d="M19.7925 22.6305V14.2074C19.9392 14.198 20.0742 14.1816 20.2092 14.1816C22.3631 14.1804 24.5169 14.1757 26.672 14.1816C29.7614 14.1898 31.7732 16.9775 30.7333 19.8873C30.144 21.5377 28.8787 22.5096 27.1427 22.5941C24.9465 22.6997 22.7422 22.6269 20.5414 22.6305C20.3089 22.6305 20.0754 22.6305 19.7925 22.6305Z" fill="#FF6200"/>
</svg>
