<svg width="62" height="41" viewBox="0 0 62 41" fill="none" xmlns="http://www.w3.org/2000/svg">
<path d="M62 14.0191C61.9644 14.0644 61.9094 14.1048 61.8965 14.1565C61.4583 15.7978 60.3733 16.7486 58.753 17.1626C54.2173 18.322 49.6847 19.4976 45.1506 20.6634C42.4453 21.3588 39.74 22.0557 37.0283 22.7251C36.8051 22.7801 36.4704 22.7074 36.2909 22.5651C32.1917 19.2971 26.4222 20.775 24.3734 25.6196C24.2829 25.8331 24.0306 26.0659 23.8107 26.1225C17.8212 27.6846 11.8285 29.2353 5.83099 30.7634C3.76929 31.2889 1.72213 30.1586 1.08988 28.1357C0.677534 26.8162 0.371916 25.4644 0 24.0527C3.04486 23.2669 6.05091 22.4907 9.12164 21.6983C8.61551 19.7304 8.11747 17.7948 7.60649 15.8075C6.35168 16.1228 5.13244 16.4301 3.85661 16.7519C3.54775 15.5569 3.25346 14.4169 2.94299 13.2219C6.62657 12.2743 10.2778 11.3332 13.9857 10.3792C14.2913 11.558 14.5872 12.698 14.9009 13.9107C13.6445 14.2422 12.4123 14.5673 11.1559 14.8987C11.6604 16.8634 12.1552 18.7861 12.671 20.7896C24.5125 17.7415 36.3362 14.6999 48.2229 11.6404C47.7152 9.66605 47.2155 7.73047 46.7062 5.75123C45.44 6.06978 44.2208 6.37702 42.9547 6.69396C42.6474 5.50706 42.3564 4.38323 42.0411 3.16399C45.7182 2.21641 49.3807 1.27207 53.087 0.316406C53.3958 1.50977 53.6901 2.64977 54.0006 3.85284C52.7522 4.1811 51.5346 4.49965 50.2555 4.83438C50.7552 6.77642 51.2468 8.6926 51.7675 10.7203C54.7929 9.94579 57.799 9.17609 60.86 8.39345C61.2449 9.76469 61.62 11.1052 61.9968 12.4457V14.0191H62Z" fill="#FF6200"/>
<path d="M35.4372 36.414H44.3956V40.0167H18.4795V36.4285H27.4685C27.4685 36.1375 27.4685 35.9208 27.4685 35.7041C27.4685 33.3045 27.4475 30.9032 27.475 28.5035C27.5041 26.044 29.257 24.3688 31.6744 24.4335C33.4936 24.482 35.2319 26.0036 35.3499 27.8195C35.4663 29.5869 35.4178 31.3656 35.434 33.1395C35.4437 34.2051 35.4356 35.2724 35.4356 36.414H35.4372Z" fill="#FF6200"/>
</svg>
