<svg width="48" height="45" viewBox="0 0 48 45" fill="none" xmlns="http://www.w3.org/2000/svg">
<path d="M44.5709 37.7073H18.8564C18.8564 37.5039 18.8564 37.3173 18.8564 37.1307C18.8564 33.9546 18.8564 30.7771 18.8564 27.6011C18.8564 26.382 19.5214 25.7128 20.7335 25.7128C26.9987 25.7128 33.2638 25.7086 39.529 25.7128C43.7025 25.7156 47.2981 28.8426 47.8985 32.9838C47.9518 33.3528 47.9925 33.7274 47.9939 34.1005C48.0023 36.9736 47.9995 39.8467 47.9981 42.7197C47.9981 43.8097 47.2967 44.5631 46.288 44.5645C45.2794 44.5659 44.5737 43.8125 44.5709 42.7281C44.5681 41.2467 44.5709 39.7653 44.5709 38.2839C44.5709 38.1099 44.5709 37.9345 44.5709 37.7087V37.7073Z" fill="#FF6200"/>
<path d="M15.4143 30.8354V37.6814H3.42684C3.42684 37.9283 3.42684 38.1163 3.42684 38.3056C3.42684 39.8053 3.43105 41.305 3.42544 42.8046C3.42123 43.8371 2.68613 44.575 1.68589 44.5652C0.726332 44.5568 0.00105215 43.8063 0.00105215 42.8032C-0.000350716 33.6972 -0.000350716 24.5913 0.00105215 15.4867C0.00105215 14.4472 0.726332 13.7107 1.72798 13.7149C2.71699 13.7191 3.42684 14.4654 3.42684 15.5161C3.42965 20.3897 3.42684 25.2646 3.42684 30.1382C3.42684 30.3514 3.42684 30.5632 3.42684 30.8354H15.4143Z" fill="#FF6200"/>
<path d="M20.5713 5.14415C20.5713 4.01064 20.5699 2.92763 20.5713 1.84321C20.5741 0.692865 21.2517 0.00546189 22.388 0.00265617C23.4766 -0.000149558 24.5652 -0.00155242 25.6538 0.00265617C26.7186 0.00686476 27.42 0.713908 27.4243 1.78429C27.4285 2.88554 27.4243 3.98819 27.4243 5.14415C28.5564 5.14415 29.6408 5.14275 30.7238 5.14415C31.8657 5.14695 32.5629 5.83436 32.5657 6.96226C32.5686 8.05088 32.57 9.1395 32.5657 10.2281C32.5601 11.2943 31.8559 11.9929 30.7827 11.9985C29.6815 12.0027 28.5788 11.9985 27.4243 11.9985C27.4243 13.132 27.4257 14.2151 27.4243 15.2981C27.4215 16.4456 26.7397 17.1358 25.6047 17.1386C24.5161 17.1414 23.4275 17.1428 22.3389 17.1386C21.2783 17.133 20.5741 16.4218 20.5699 15.3542C20.5657 14.2529 20.5699 13.1517 20.5699 11.9971C19.435 11.9971 18.3519 11.9985 17.2675 11.9971C16.1242 11.9943 15.4312 11.3083 15.427 10.1762C15.4242 9.0876 15.4228 7.99897 15.427 6.91035C15.4312 5.84277 16.134 5.14836 17.21 5.14415C18.3113 5.13994 19.4139 5.14415 20.5685 5.14415H20.5713Z" fill="#FF6200"/>
<path d="M11.9971 27.4232C9.13105 27.4232 6.8528 25.1309 6.85841 22.2522C6.86262 19.4184 9.1563 17.1402 12.0041 17.1416C14.8744 17.1416 17.1484 19.4297 17.1428 22.3126C17.1372 25.1477 14.8463 27.4246 11.9985 27.4246L11.9971 27.4232Z" fill="#FF6200"/>
</svg>
