<svg width="64" height="70" viewBox="0 0 64 70" fill="none" xmlns="http://www.w3.org/2000/svg">
<path d="M4.57143 60.9297H59.4286C61.9429 60.9297 64 62.9705 64 65.4649C64 67.9592 61.9429 70 59.4286 70H4.57143C2.05714 70 0 67.9592 0 65.4649C0 62.9705 2.05714 60.9297 4.57143 60.9297ZM27.4743 42.3356C23.9086 45.8277 18.1486 45.8277 14.5829 42.2903L4.57143 32.3583C2.05714 29.8639 2.10286 25.8277 4.70857 23.424C7.17714 21.0658 11.1086 21.1565 13.4857 23.5147L21.0286 30.9977L50.4229 1.83673C52.8914 -0.612245 56.8686 -0.612245 59.3371 1.83673L59.52 2.01814C61.9886 4.46712 61.9886 8.45805 59.4743 10.907L27.4743 42.3356Z" fill="#FF6200"/>
</svg>
