<svg width="53" height="51" viewBox="0 0 53 51" fill="none" xmlns="http://www.w3.org/2000/svg">
<path d="M0 22.1355C0.641691 20.9351 1.71625 20.6129 2.59027 21.3749C2.82952 21.5837 3.02314 21.8451 3.2776 22.1258C3.586 20.8452 3.7893 19.6753 4.14886 18.5551C6.92584 9.91298 12.6305 4.12946 21.3694 1.66504C29.5344 -0.63758 37.0936 0.976328 43.7332 6.26751C48.6994 10.2241 51.7031 15.431 52.6892 21.7289C54.4884 33.2116 48.3467 44.2103 37.626 48.7104C33.928 50.2634 30.0585 50.8249 26.0521 50.5221C15.7131 49.7407 6.96041 42.4705 4.07972 32.5838C3.79621 31.6088 4.10599 30.7873 4.89566 30.4512C5.78628 30.0709 6.6769 30.566 7.04892 31.5424C7.63391 33.0816 8.13592 34.6803 8.93389 36.1075C12.2834 42.0902 17.3575 45.8159 24.1063 47.0868C35.4354 49.2221 46.4092 42.1317 49.2318 30.9422C52.2287 19.0681 44.6943 6.93271 32.7138 4.33138C21.014 1.79089 9.43728 9.1565 6.78477 20.8286C6.75158 20.9739 6.73637 21.1232 6.71424 21.2601C7.07658 21.1647 7.39742 21.0319 7.72795 21.0029C8.39868 20.9448 8.90484 21.2629 9.18697 21.8617C9.46632 22.455 9.42345 23.0718 8.96569 23.5503C7.89114 24.6705 6.79584 25.7727 5.6715 26.8431C5.09204 27.3935 4.19173 27.3576 3.60121 26.7878C2.52113 25.7464 1.46731 24.676 0.417652 23.6042C0.242017 23.4244 0.136912 23.1783 0 22.9639C0 22.6873 0 22.4121 0 22.1355Z" fill="#FF6200"/>
<path d="M43.6694 25.6567C43.6694 34.2241 36.6385 41.2578 28.0711 41.2661C19.4899 41.2744 12.4147 34.1923 12.4479 25.6277C12.4811 17.0437 19.512 10.0335 28.0753 10.0459C36.6496 10.0597 43.6708 17.0893 43.6694 25.6581V25.6567ZM26.507 24.1023C26.2719 24.1023 26.0866 24.1023 25.9026 24.1023C24.0578 24.1023 22.2115 24.094 20.3667 24.1064C19.4276 24.1119 18.7472 24.7592 18.7306 25.618C18.714 26.4865 19.3751 27.1946 20.292 27.2015C22.8781 27.2208 25.4656 27.2222 28.0517 27.2001C28.9562 27.1918 29.5951 26.5072 29.602 25.5986C29.6145 23.9598 29.6145 22.3224 29.602 20.6836C29.5965 20.0267 29.2881 19.5219 28.6782 19.2495C27.6313 18.7807 26.5305 19.5413 26.5111 20.7541C26.4932 21.8522 26.507 22.9516 26.507 24.1023Z" fill="#FF6200"/>
</svg>
